<svg width="850" height="542" viewBox="0 0 850 542" fill="none" xmlns="http://www.w3.org/2000/svg">
<g opacity="0.3" filter="url(#filter0_dd)">
<circle cx="424.767" cy="261.77" r="157.824" fill="#BFF2EA"/>
</g>
<circle cx="425.168" cy="262.168" r="154.156" transform="rotate(-9.81004 425.168 262.168)" fill="#2196BB"/>
<path d="M314.927 154.412C338.343 130.457 368.924 114.78 402.043 109.755C435.163 104.73 469.018 110.63 498.485 126.562L425.168 262.168L314.927 154.412Z" fill="#4A4EB5"/>
<path d="M288.497 333.478C273.437 304.616 267.902 271.727 272.683 239.526C277.465 207.324 292.318 177.463 315.114 154.222L425.168 262.168L288.497 333.478Z" fill="#6E4AFF"/>
<path d="M521.801 142.058C537.752 154.891 550.987 170.773 560.733 188.777C570.48 206.78 576.543 226.544 578.568 246.916C580.593 267.288 578.541 287.859 572.53 307.429C566.519 326.999 556.67 345.176 543.559 360.899L425.168 262.168L521.801 142.058Z" fill="#28B68F"/>
<path d="M543.546 360.914C518.88 390.484 484.041 409.752 445.883 414.926L425.168 262.168L543.546 360.914Z" fill="#5DCC89"/>
<path d="M445.911 414.922C442.903 415.331 439.884 415.65 436.858 415.88L425.168 262.168L445.911 414.922Z" fill="#56DDCD"/>
<path d="M436.824 415.883C417.937 417.315 398.948 415.254 380.808 409.804L425.168 262.168L436.824 415.883Z" fill="#FF6DC5"/>
<path d="M380.874 409.824C361.406 403.983 343.284 394.351 327.553 381.48C311.821 368.61 298.79 352.755 289.21 334.829L425.168 262.168L380.874 409.824Z" fill="#E371FF"/>
<path d="M289.209 334.828C288.966 334.372 288.725 333.916 288.486 333.457L425.168 262.168L289.209 334.828Z" fill="#AF4AFF"/>
<circle opacity="0.3" cx="424.998" cy="262" r="109.965" fill="#FAFAFF"/>
<circle opacity="0.3" cx="425" cy="262" r="91" fill="#FAFAFF"/>
<g filter="url(#filter1_i)">
<circle cx="425" cy="262" r="86" fill="url(#paint0_linear)"/>
</g>
<g filter="url(#filter2_d)">
<mask id="mask0" mask-type="alpha" maskUnits="userSpaceOnUse" x="373" y="206" width="104" height="112">
<path d="M440.001 210.66C430.719 205.301 419.283 205.301 410.001 210.66L388.039 223.34C378.757 228.699 373.039 238.603 373.039 249.321V274.68C373.039 285.398 378.757 295.301 388.039 300.66L410.001 313.34C419.283 318.699 430.719 318.699 440.001 313.34L461.962 300.66C471.244 295.301 476.962 285.398 476.962 274.68V249.321C476.962 238.603 471.244 228.699 461.962 223.34L440.001 210.66Z" fill="#29E7E8"/>
</mask>
<g mask="url(#mask0)">
<path d="M439.999 210.66C430.717 205.301 419.281 205.301 409.999 210.66L388.037 223.34C378.755 228.699 373.037 238.603 373.037 249.321V274.68C373.037 285.398 378.755 295.301 388.037 300.66L409.999 313.34C419.281 318.699 430.717 318.699 439.999 313.34L461.96 300.66C471.242 295.301 476.96 285.398 476.96 274.68V249.321C476.96 238.603 471.242 228.699 461.96 223.34L439.999 210.66Z" fill="url(#paint1_radial)"/>
<path fill-rule="evenodd" clip-rule="evenodd" d="M420.719 228.25H430.403V235.229C440.964 236.819 448.545 243.794 449.744 253.208H436.311C434.978 248.526 430.981 245.674 425.764 245.674C418.066 245.674 413.514 251.635 413.514 261.911C413.514 272.371 418.547 278.698 426.356 278.698C432.499 278.698 436.792 275.114 437.161 269.811L437.198 269.006H427.429V259.79H450.299V266.264C450.299 279.243 442.973 287.682 430.403 289.229V295.75H420.719V289.103C407.471 287.114 399.674 277.465 399.674 262.094C399.674 246.828 407.564 237.148 420.719 235.235V228.25Z" fill="white"/>
</g>
</g>
<circle cx="298" cy="329" r="2" fill="#1F242B"/>
<path d="M36.128 37.6C36.128 42.616 39.608 46.336 44.528 46.336C47.024 46.336 49.208 45.232 50.48 43.792L47.96 41.104C47.096 42.088 45.8 42.64 44.456 42.64C41.864 42.64 40.04 40.552 40.04 37.6C40.04 34.648 41.912 32.56 44.528 32.56C45.824 32.56 47 33.088 47.792 34.072L50.36 31.408C49.112 29.92 46.976 28.864 44.456 28.864C39.656 28.864 36.128 32.608 36.128 37.6ZM51.533 39.688C51.533 43.48 54.197 46.336 57.965 46.336C61.733 46.336 64.397 43.48 64.397 39.688C64.397 35.92 61.733 33.064 57.965 33.064C54.197 33.064 51.533 35.92 51.533 39.688ZM55.157 39.688C55.157 37.6 56.381 36.28 57.965 36.28C59.549 36.28 60.773 37.6 60.773 39.688C60.773 41.776 59.549 43.096 57.965 43.096C56.381 43.096 55.157 41.776 55.157 39.688ZM66.6374 46H70.1894V39.64C70.1894 37.48 71.2214 36.448 72.5654 36.448C73.6694 36.448 74.5574 37.192 74.5574 39.16V46H78.1094V39.64C78.1094 37.48 79.1414 36.448 80.4854 36.448C81.5894 36.448 82.4534 37.192 82.4534 39.16V46H86.0054V38.536C86.0054 34.888 84.0134 33.064 81.5414 33.064C79.9814 33.064 78.4694 33.736 77.4374 35.392C76.6694 33.856 75.2774 33.064 73.6934 33.064C72.2054 33.064 70.8854 33.88 70.1894 35.08V33.376H66.6374V46ZM89.009 49.6H92.561V44.776C93.473 45.76 94.673 46.336 96.065 46.336C99.281 46.336 101.441 43.456 101.441 39.688C101.441 35.944 99.281 33.064 96.065 33.064C94.625 33.064 93.377 33.688 92.441 34.744V33.376H89.009V49.6ZM92.297 39.688C92.297 37.624 93.425 36.256 95.081 36.256C96.665 36.256 97.817 37.672 97.817 39.688C97.817 41.728 96.665 43.12 95.081 43.12C93.425 43.12 92.297 41.776 92.297 39.688ZM102.854 42.496C102.854 44.68 104.342 46.336 106.814 46.336C108.254 46.336 109.502 45.76 110.366 44.752V46H113.918V38.44C113.918 34.96 111.662 33.064 108.422 33.064C106.622 33.064 104.918 33.544 103.574 34.216L104.582 37.048C105.566 36.544 106.694 36.208 107.702 36.208C109.286 36.208 110.27 36.952 110.366 38.704C109.646 38.536 108.902 38.44 108.062 38.44C104.678 38.44 102.854 40.168 102.854 42.496ZM106.238 42.208C106.238 41.44 106.838 40.72 108.35 40.72C109.094 40.72 109.718 40.792 110.366 40.888V41.104C110.366 42.496 109.286 43.552 107.798 43.552C106.718 43.552 106.238 42.904 106.238 42.208ZM116.924 46H120.476V39.592C120.476 37.552 121.58 36.448 123.02 36.448C124.22 36.448 125.204 37.192 125.204 39.16V46H128.756V38.536C128.756 34.96 126.692 33.064 124.268 33.064C122.588 33.064 121.196 33.88 120.476 35.08V33.376H116.924V46ZM130.885 49.528C131.461 49.792 132.253 49.936 133.117 49.936C135.061 49.936 136.861 49.048 138.205 45.712L143.197 33.376H139.453L136.669 41.224L133.933 33.376H130.093L134.917 45.352C134.245 46.648 133.669 46.912 132.637 46.912C132.109 46.912 131.629 46.792 131.221 46.624L130.885 49.528ZM150.038 46H153.782V40.216H155.726L158.966 46H163.358L159.446 39.76C161.606 38.944 162.854 37.12 162.854 34.792C162.854 31.528 160.526 29.2 156.734 29.2H150.038V46ZM156.422 32.656C157.958 32.656 158.942 33.52 158.942 34.792C158.942 36.064 157.958 36.928 156.422 36.928H153.782V32.656H156.422ZM164.459 39.736C164.459 43.456 167.171 46.336 171.083 46.336C172.931 46.336 174.587 45.76 176.051 44.8L174.515 42.256C173.651 42.832 172.451 43.168 171.323 43.168C169.619 43.168 168.443 42.232 168.083 40.744H176.411C176.507 40.336 176.531 39.808 176.531 39.376C176.531 35.776 174.275 33.064 170.603 33.064C166.907 33.064 164.459 35.968 164.459 39.736ZM170.603 35.968C171.995 35.968 172.883 36.952 173.051 38.56H168.059C168.371 36.904 169.331 35.968 170.603 35.968ZM177.78 44.632C179.004 45.616 181.092 46.288 183.036 46.288C186.468 46.288 188.34 44.608 188.34 42.328C188.34 40.432 187.164 38.968 183.756 38.056C182.244 37.648 181.884 37.288 181.884 36.856C181.884 36.472 182.34 36.064 183.252 36.064C184.26 36.064 185.556 36.424 186.564 37.024L187.812 34.432C186.54 33.664 184.812 33.232 183.276 33.232C180.372 33.232 178.38 34.936 178.38 37.12C178.38 38.896 179.556 40.264 182.532 41.176C184.38 41.752 184.668 42.112 184.668 42.592C184.668 43 184.284 43.36 183.132 43.36C181.908 43.36 180.204 42.808 179.244 41.992L177.78 44.632ZM189.561 39.736C189.561 43.456 192.273 46.336 196.185 46.336C198.033 46.336 199.689 45.76 201.153 44.8L199.617 42.256C198.753 42.832 197.553 43.168 196.425 43.168C194.721 43.168 193.545 42.232 193.185 40.744H201.513C201.609 40.336 201.633 39.808 201.633 39.376C201.633 35.776 199.377 33.064 195.705 33.064C192.009 33.064 189.561 35.968 189.561 39.736ZM195.705 35.968C197.097 35.968 197.985 36.952 198.153 38.56H193.161C193.473 36.904 194.433 35.968 195.705 35.968ZM203.939 46H207.491V40.816C207.491 38.176 208.643 37.024 211.379 36.928V33.064C209.603 33.064 208.187 34.12 207.491 35.752V33.376H203.939V46ZM216.618 46.048H219.474L224.61 33.376H220.866L218.058 41.2L215.346 33.376H211.506L216.618 46.048ZM225.176 39.736C225.176 43.456 227.888 46.336 231.8 46.336C233.648 46.336 235.304 45.76 236.768 44.8L235.232 42.256C234.368 42.832 233.168 43.168 232.04 43.168C230.336 43.168 229.16 42.232 228.8 40.744H237.128C237.224 40.336 237.248 39.808 237.248 39.376C237.248 35.776 234.992 33.064 231.32 33.064C227.624 33.064 225.176 35.968 225.176 39.736ZM231.32 35.968C232.712 35.968 233.6 36.952 233.768 38.56H228.776C229.088 36.904 230.048 35.968 231.32 35.968Z" fill="#4A4EB5"/>
<path d="M36.41 94H51.38V89.68H43.58L46.64 86.83C49.73 83.95 51.14 81.79 51.14 79.18C51.14 75.37 48.17 72.61 43.79 72.61C40.46 72.61 37.73 74.41 36.26 77.44L39.8 79.81C40.67 78.07 41.9 77.05 43.52 77.05C45.08 77.05 46.25 78.16 46.25 79.57C46.25 80.8 45.68 81.88 43.43 84.13L36.41 91.12V94ZM53.5646 83.5C53.5646 90.28 57.0146 94.42 62.1446 94.42C67.3046 94.42 70.7546 90.28 70.7546 83.5C70.7546 76.72 67.3046 72.58 62.1446 72.58C57.0146 72.58 53.5646 76.72 53.5646 83.5ZM58.4846 83.5C58.4846 78.94 60.1046 76.99 62.1446 76.99C64.1846 76.99 65.8346 78.94 65.8346 83.5C65.8346 88.06 64.1846 90.01 62.1446 90.01C60.1046 90.01 58.4846 88.06 58.4846 83.5ZM72.777 91.6C72.777 93.16 73.947 94.42 75.657 94.42C77.367 94.42 78.537 93.16 78.537 91.6C78.537 90.07 77.367 88.81 75.657 88.81C73.947 88.81 72.777 90.07 72.777 91.6ZM80.9841 90.19C82.6041 92.8 85.5741 94.42 89.1441 94.42C93.8841 94.42 97.3041 91.51 97.3041 87.01C97.3041 83.14 94.3641 80.26 90.2241 80.26C88.6041 80.26 87.3441 80.62 86.3541 81.25L86.5941 77.44H95.8641V73H82.8741L82.1541 84.4L84.9141 85.6C85.9341 84.82 87.1941 84.22 88.8141 84.22C91.0641 84.22 92.4441 85.39 92.4441 87.19C92.4441 88.93 91.0341 90.07 88.9941 90.07C87.0741 90.07 85.5141 89.05 84.4641 87.49L80.9841 90.19ZM101.683 94H106.843L113.683 75.88V73H98.8027V77.56H108.403L101.683 94ZM115.293 78.07C115.293 81.19 117.633 83.56 120.933 83.56C124.263 83.56 126.573 81.19 126.573 78.07C126.573 74.98 124.263 72.58 120.933 72.58C117.633 72.58 115.293 74.98 115.293 78.07ZM119.103 94H123.783L136.953 73H132.273L119.103 94ZM119.043 78.07C119.043 76.87 119.883 76.09 120.933 76.09C122.013 76.09 122.853 76.87 122.853 78.07C122.853 79.27 122.013 80.05 120.933 80.05C119.883 80.05 119.043 79.27 119.043 78.07ZM129.453 88.93C129.453 92.02 131.793 94.42 135.093 94.42C138.423 94.42 140.733 92.02 140.733 88.93C140.733 85.81 138.423 83.44 135.093 83.44C131.763 83.44 129.453 85.81 129.453 88.93ZM133.203 88.93C133.203 87.73 134.043 86.95 135.093 86.95C136.173 86.95 137.013 87.73 137.013 88.93C137.013 90.1 136.173 90.91 135.093 90.91C134.043 90.91 133.203 90.1 133.203 88.93Z" fill="#4A4EB5"/>
<path d="M35 60H333L392 119" stroke="#1F242B"/>
<path d="M36.41 200H51.38V195.68H43.58L46.64 192.83C49.73 189.95 51.14 187.79 51.14 185.18C51.14 181.37 48.17 178.61 43.79 178.61C40.46 178.61 37.73 180.41 36.26 183.44L39.8 185.81C40.67 184.07 41.9 183.05 43.52 183.05C45.08 183.05 46.25 184.16 46.25 185.57C46.25 186.8 45.68 187.88 43.43 190.13L36.41 197.12V200ZM53.5646 189.5C53.5646 196.28 57.0146 200.42 62.1446 200.42C67.3046 200.42 70.7546 196.28 70.7546 189.5C70.7546 182.72 67.3046 178.58 62.1446 178.58C57.0146 178.58 53.5646 182.72 53.5646 189.5ZM58.4846 189.5C58.4846 184.94 60.1046 182.99 62.1446 182.99C64.1846 182.99 65.8346 184.94 65.8346 189.5C65.8346 194.06 64.1846 196.01 62.1446 196.01C60.1046 196.01 58.4846 194.06 58.4846 189.5ZM72.777 197.6C72.777 199.16 73.947 200.42 75.657 200.42C77.367 200.42 78.537 199.16 78.537 197.6C78.537 196.07 77.367 194.81 75.657 194.81C73.947 194.81 72.777 196.07 72.777 197.6ZM80.5482 189.5C80.5482 196.28 83.9982 200.42 89.1282 200.42C94.2882 200.42 97.7382 196.28 97.7382 189.5C97.7382 182.72 94.2882 178.58 89.1282 178.58C83.9982 178.58 80.5482 182.72 80.5482 189.5ZM85.4682 189.5C85.4682 184.94 87.0882 182.99 89.1282 182.99C91.1682 182.99 92.8182 184.94 92.8182 189.5C92.8182 194.06 91.1682 196.01 89.1282 196.01C87.0882 196.01 85.4682 194.06 85.4682 189.5ZM99.8966 184.07C99.8966 187.19 102.237 189.56 105.537 189.56C108.867 189.56 111.177 187.19 111.177 184.07C111.177 180.98 108.867 178.58 105.537 178.58C102.237 178.58 99.8966 180.98 99.8966 184.07ZM103.707 200H108.387L121.557 179H116.877L103.707 200ZM103.647 184.07C103.647 182.87 104.487 182.09 105.537 182.09C106.617 182.09 107.457 182.87 107.457 184.07C107.457 185.27 106.617 186.05 105.537 186.05C104.487 186.05 103.647 185.27 103.647 184.07ZM114.057 194.93C114.057 198.02 116.397 200.42 119.697 200.42C123.027 200.42 125.337 198.02 125.337 194.93C125.337 191.81 123.027 189.44 119.697 189.44C116.367 189.44 114.057 191.81 114.057 194.93ZM117.807 194.93C117.807 193.73 118.647 192.95 119.697 192.95C120.777 192.95 121.617 193.73 121.617 194.93C121.617 196.1 120.777 196.91 119.697 196.91C118.647 196.91 117.807 196.1 117.807 194.93Z" fill="#6E4AFF"/>
<path d="M40.112 152H43.856V138.656H48.368V135.2H35.624V138.656H40.112V152ZM48.4393 145.736C48.4393 149.456 51.1513 152.336 55.0633 152.336C56.9113 152.336 58.5673 151.76 60.0313 150.8L58.4953 148.256C57.6313 148.832 56.4313 149.168 55.3033 149.168C53.5993 149.168 52.4233 148.232 52.0633 146.744H60.3913C60.4873 146.336 60.5113 145.808 60.5113 145.376C60.5113 141.776 58.2553 139.064 54.5833 139.064C50.8873 139.064 48.4393 141.968 48.4393 145.736ZM54.5833 141.968C55.9753 141.968 56.8633 142.952 57.0313 144.56H52.0393C52.3513 142.904 53.3113 141.968 54.5833 141.968ZM62.0011 148.496C62.0011 150.68 63.4891 152.336 65.9611 152.336C67.4011 152.336 68.6491 151.76 69.5131 150.752V152H73.0651V144.44C73.0651 140.96 70.8091 139.064 67.5691 139.064C65.7691 139.064 64.0651 139.544 62.7211 140.216L63.7291 143.048C64.7131 142.544 65.8411 142.208 66.8491 142.208C68.4331 142.208 69.4171 142.952 69.5131 144.704C68.7931 144.536 68.0491 144.44 67.2091 144.44C63.8251 144.44 62.0011 146.168 62.0011 148.496ZM65.3851 148.208C65.3851 147.44 65.9851 146.72 67.4971 146.72C68.2411 146.72 68.8651 146.792 69.5131 146.888V147.104C69.5131 148.496 68.4331 149.552 66.9451 149.552C65.8651 149.552 65.3851 148.904 65.3851 148.208ZM76.0715 152H79.6235V145.64C79.6235 143.48 80.6555 142.448 81.9995 142.448C83.1035 142.448 83.9915 143.192 83.9915 145.16V152H87.5435V145.64C87.5435 143.48 88.5755 142.448 89.9195 142.448C91.0235 142.448 91.8875 143.192 91.8875 145.16V152H95.4395V144.536C95.4395 140.888 93.4475 139.064 90.9755 139.064C89.4155 139.064 87.9035 139.736 86.8715 141.392C86.1035 139.856 84.7115 139.064 83.1275 139.064C81.6395 139.064 80.3195 139.88 79.6235 141.08V139.376H76.0715V152ZM102.775 147.824C102.775 150.392 104.767 152.336 108.127 152.336C109.663 152.336 111.055 151.88 112.375 151.088L113.071 152H117.607L115.135 148.856C115.879 148.088 116.623 147.248 117.367 146.336L114.607 144.2C114.079 144.944 113.575 145.616 113.071 146.192L111.127 143.72C113.767 142.304 114.559 140.84 114.559 139.16C114.559 136.832 112.567 134.864 109.519 134.864C106.495 134.864 104.503 136.832 104.503 139.28C104.503 140.456 105.079 141.536 106.135 142.928C103.495 144.464 102.775 145.976 102.775 147.824ZM108.175 139.184C108.175 138.392 108.703 137.768 109.519 137.768C110.335 137.768 110.887 138.392 110.887 139.184C110.887 139.976 110.647 140.624 109.231 141.392C108.511 140.48 108.175 139.832 108.175 139.184ZM106.495 147.584C106.495 146.912 106.855 146.144 107.983 145.352L110.479 148.592C109.735 149.072 109.015 149.312 108.367 149.312C107.215 149.312 106.495 148.568 106.495 147.584ZM122.724 152H126.588L127.74 148.928H133.932L135.06 152H139.092L132.396 135.152H129.396L122.724 152ZM128.964 145.712L130.884 140.648L132.756 145.712H128.964ZM139.72 145.688C139.72 149.456 141.88 152.336 145.072 152.336C146.536 152.336 147.784 151.688 148.72 150.632V152H152.128V134.48H148.576V140.6C147.664 139.64 146.464 139.064 145.072 139.064C141.856 139.064 139.72 141.944 139.72 145.688ZM143.344 145.688C143.344 143.672 144.472 142.256 146.08 142.256C147.712 142.256 148.864 143.624 148.864 145.688C148.864 147.752 147.712 149.12 146.08 149.12C144.472 149.12 143.344 147.704 143.344 145.688ZM158.773 152.048H161.629L166.765 139.376H163.021L160.213 147.2L157.501 139.376H153.661L158.773 152.048ZM167.81 135.68C167.81 136.88 168.722 137.792 170.042 137.792C171.362 137.792 172.274 136.88 172.274 135.68C172.274 134.48 171.362 133.568 170.042 133.568C168.722 133.568 167.81 134.48 167.81 135.68ZM168.266 152H171.818V139.376H168.266V152ZM173.926 150.632C175.15 151.616 177.238 152.288 179.182 152.288C182.614 152.288 184.486 150.608 184.486 148.328C184.486 146.432 183.31 144.968 179.902 144.056C178.39 143.648 178.03 143.288 178.03 142.856C178.03 142.472 178.486 142.064 179.398 142.064C180.406 142.064 181.702 142.424 182.71 143.024L183.958 140.432C182.686 139.664 180.958 139.232 179.422 139.232C176.518 139.232 174.526 140.936 174.526 143.12C174.526 144.896 175.702 146.264 178.678 147.176C180.526 147.752 180.814 148.112 180.814 148.592C180.814 149 180.43 149.36 179.278 149.36C178.054 149.36 176.35 148.808 175.39 147.992L173.926 150.632ZM185.706 145.688C185.706 149.48 188.37 152.336 192.138 152.336C195.906 152.336 198.57 149.48 198.57 145.688C198.57 141.92 195.906 139.064 192.138 139.064C188.37 139.064 185.706 141.92 185.706 145.688ZM189.33 145.688C189.33 143.6 190.554 142.28 192.138 142.28C193.722 142.28 194.946 143.6 194.946 145.688C194.946 147.776 193.722 149.096 192.138 149.096C190.554 149.096 189.33 147.776 189.33 145.688ZM200.811 152H204.363V146.816C204.363 144.176 205.515 143.024 208.251 142.928V139.064C206.475 139.064 205.059 140.12 204.363 141.752V139.376H200.811V152ZM208.978 150.632C210.202 151.616 212.29 152.288 214.234 152.288C217.666 152.288 219.538 150.608 219.538 148.328C219.538 146.432 218.362 144.968 214.954 144.056C213.442 143.648 213.082 143.288 213.082 142.856C213.082 142.472 213.538 142.064 214.45 142.064C215.458 142.064 216.754 142.424 217.762 143.024L219.01 140.432C217.738 139.664 216.01 139.232 214.474 139.232C211.57 139.232 209.578 140.936 209.578 143.12C209.578 144.896 210.754 146.264 213.73 147.176C215.578 147.752 215.866 148.112 215.866 148.592C215.866 149 215.482 149.36 214.33 149.36C213.106 149.36 211.402 148.808 210.442 147.992L208.978 150.632Z" fill="#6E4AFF"/>
<path d="M36 166H310" stroke="#1F242B"/>
<path d="M36.44 295.5C36.44 302.28 39.89 306.42 45.02 306.42C50.18 306.42 53.63 302.28 53.63 295.5C53.63 288.72 50.18 284.58 45.02 284.58C39.89 284.58 36.44 288.72 36.44 295.5ZM41.36 295.5C41.36 290.94 42.98 288.99 45.02 288.99C47.06 288.99 48.71 290.94 48.71 295.5C48.71 300.06 47.06 302.01 45.02 302.01C42.98 302.01 41.36 300.06 41.36 295.5ZM55.6524 303.6C55.6524 305.16 56.8224 306.42 58.5324 306.42C60.2424 306.42 61.4124 305.16 61.4124 303.6C61.4124 302.07 60.2424 300.81 58.5324 300.81C56.8224 300.81 55.6524 302.07 55.6524 303.6ZM67.0461 306H71.7261V285H67.9761L60.8661 288.9L62.9061 292.65L67.0461 290.25V306ZM75.7435 297.48C75.7435 303.09 79.0735 306.42 84.1435 306.42C88.7635 306.42 92.0935 303.27 92.0935 299.19C92.0935 295.14 89.3935 292.5 85.5835 292.5C83.6635 292.5 81.8935 293.28 80.7535 294.66C81.6535 291.57 84.2335 289.71 89.7835 289.02L89.3035 284.58C81.2335 285.24 75.7435 290.4 75.7435 297.48ZM80.6635 299.37C80.6635 297.51 82.1035 296.28 84.0535 296.28C85.9135 296.28 87.2635 297.48 87.2635 299.31C87.2635 301.2 85.8835 302.43 83.9335 302.43C82.2535 302.43 80.6635 301.26 80.6635 299.37ZM94.213 290.07C94.213 293.19 96.553 295.56 99.853 295.56C103.183 295.56 105.493 293.19 105.493 290.07C105.493 286.98 103.183 284.58 99.853 284.58C96.553 284.58 94.213 286.98 94.213 290.07ZM98.023 306H102.703L115.873 285H111.193L98.023 306ZM97.963 290.07C97.963 288.87 98.803 288.09 99.853 288.09C100.933 288.09 101.773 288.87 101.773 290.07C101.773 291.27 100.933 292.05 99.853 292.05C98.803 292.05 97.963 291.27 97.963 290.07ZM108.373 300.93C108.373 304.02 110.713 306.42 114.013 306.42C117.343 306.42 119.653 304.02 119.653 300.93C119.653 297.81 117.343 295.44 114.013 295.44C110.683 295.44 108.373 297.81 108.373 300.93ZM112.123 300.93C112.123 299.73 112.963 298.95 114.013 298.95C115.093 298.95 115.933 299.73 115.933 300.93C115.933 302.1 115.093 302.91 114.013 302.91C112.963 302.91 112.123 302.1 112.123 300.93Z" fill="#AF4AFF"/>
<path d="M37.136 258H40.88V253.08H43.808C47.744 253.08 50.144 250.68 50.144 247.176C50.144 243.624 47.744 241.2 43.808 241.2H37.136V258ZM43.52 244.656C45.176 244.656 46.208 245.616 46.208 247.176C46.208 248.712 45.176 249.672 43.52 249.672H40.88V244.656H43.52ZM51.9729 252.864C51.9729 256.44 54.0369 258.336 56.4849 258.336C58.1409 258.336 59.5329 257.52 60.2529 256.296V258H63.8049V245.376H60.2529V251.784C60.2529 253.824 59.1489 254.952 57.7089 254.952C56.5089 254.952 55.5249 254.184 55.5249 252.24V245.376H51.9729V252.864ZM66.9656 258H70.3976V256.656C71.3336 257.712 72.5816 258.336 74.0216 258.336C77.2376 258.336 79.3976 255.456 79.3976 251.688C79.3976 247.944 77.2376 245.064 74.0216 245.064C72.6296 245.064 71.4296 245.64 70.5176 246.624V240.48H66.9656V258ZM70.2536 251.688C70.2536 249.624 71.3816 248.256 73.0376 248.256C74.6216 248.256 75.7736 249.672 75.7736 251.688C75.7736 253.704 74.6216 255.12 73.0376 255.12C71.3816 255.12 70.2536 253.752 70.2536 251.688ZM81.6262 258H85.1782V240.48H81.6262V258ZM87.8855 241.68C87.8855 242.88 88.7975 243.792 90.1175 243.792C91.4375 243.792 92.3495 242.88 92.3495 241.68C92.3495 240.48 91.4375 239.568 90.1175 239.568C88.7975 239.568 87.8855 240.48 87.8855 241.68ZM88.3415 258H91.8935V245.376H88.3415V258ZM94.1208 251.688C94.1208 255.456 96.7128 258.336 100.457 258.336C102.473 258.336 104.249 257.592 105.449 256.416L103.289 253.896C102.737 254.52 101.777 254.976 100.841 254.976C99.0408 254.976 97.7448 253.68 97.7448 251.688C97.7448 249.696 99.0168 248.424 100.793 248.424C101.681 248.424 102.521 248.76 103.097 249.384L105.329 246.936C104.105 245.76 102.473 245.064 100.457 245.064C96.6888 245.064 94.1208 247.944 94.1208 251.688ZM112.549 258H116.293V253.08H119.221C123.157 253.08 125.557 250.68 125.557 247.176C125.557 243.624 123.157 241.2 119.221 241.2H112.549V258ZM118.933 244.656C120.589 244.656 121.621 245.616 121.621 247.176C121.621 248.712 120.589 249.672 118.933 249.672H116.293V244.656H118.933ZM127.789 258H131.341V252.816C131.341 250.176 132.493 249.024 135.229 248.928V245.064C133.453 245.064 132.037 246.12 131.341 247.752V245.376H127.789V258ZM136.076 251.736C136.076 255.456 138.788 258.336 142.7 258.336C144.548 258.336 146.204 257.76 147.668 256.8L146.132 254.256C145.268 254.832 144.068 255.168 142.94 255.168C141.236 255.168 140.06 254.232 139.7 252.744H148.028C148.124 252.336 148.148 251.808 148.148 251.376C148.148 247.776 145.892 245.064 142.22 245.064C138.524 245.064 136.076 247.968 136.076 251.736ZM142.22 247.968C143.612 247.968 144.5 248.952 144.668 250.56H139.676C139.988 248.904 140.948 247.968 142.22 247.968ZM150.19 252.864H157.894V249.624H150.19V252.864ZM159.746 256.632C160.97 257.616 163.058 258.288 165.002 258.288C168.434 258.288 170.306 256.608 170.306 254.328C170.306 252.432 169.13 250.968 165.722 250.056C164.21 249.648 163.85 249.288 163.85 248.856C163.85 248.472 164.306 248.064 165.218 248.064C166.226 248.064 167.522 248.424 168.53 249.024L169.778 246.432C168.506 245.664 166.778 245.232 165.242 245.232C162.338 245.232 160.346 246.936 160.346 249.12C160.346 250.896 161.522 252.264 164.498 253.176C166.346 253.752 166.634 254.112 166.634 254.592C166.634 255 166.25 255.36 165.098 255.36C163.874 255.36 162.17 254.808 161.21 253.992L159.746 256.632ZM171.646 254.496C171.646 256.68 173.134 258.336 175.606 258.336C177.046 258.336 178.294 257.76 179.158 256.752V258H182.71V250.44C182.71 246.96 180.454 245.064 177.214 245.064C175.414 245.064 173.71 245.544 172.366 246.216L173.374 249.048C174.358 248.544 175.486 248.208 176.494 248.208C178.078 248.208 179.062 248.952 179.158 250.704C178.438 250.536 177.694 250.44 176.854 250.44C173.47 250.44 171.646 252.168 171.646 254.496ZM175.03 254.208C175.03 253.44 175.63 252.72 177.142 252.72C177.886 252.72 178.51 252.792 179.158 252.888V253.104C179.158 254.496 178.078 255.552 176.59 255.552C175.51 255.552 175.03 254.904 175.03 254.208ZM185.717 258H189.269V240.48H185.717V258ZM191.496 251.736C191.496 255.456 194.208 258.336 198.12 258.336C199.968 258.336 201.624 257.76 203.088 256.8L201.552 254.256C200.688 254.832 199.488 255.168 198.36 255.168C196.656 255.168 195.48 254.232 195.12 252.744H203.448C203.544 252.336 203.568 251.808 203.568 251.376C203.568 247.776 201.312 245.064 197.64 245.064C193.944 245.064 191.496 247.968 191.496 251.736ZM197.64 247.968C199.032 247.968 199.92 248.952 200.088 250.56H195.096C195.408 248.904 196.368 247.968 197.64 247.968Z" fill="#AF4AFF"/>
<path d="M36.5 272.003L241 272.004L298 329.004" stroke="#1F242B"/>
<path d="M41 412H45.68V391H41.93L34.82 394.9L36.86 398.65L41 396.25V412ZM49.6674 412H64.6374V407.68H56.8374L59.8974 404.83C62.9874 401.95 64.3974 399.79 64.3974 397.18C64.3974 393.37 61.4274 390.61 57.0474 390.61C53.7174 390.61 50.9874 392.41 49.5174 395.44L53.0574 397.81C53.9274 396.07 55.1574 395.05 56.7774 395.05C58.3374 395.05 59.5074 396.16 59.5074 397.57C59.5074 398.8 58.9374 399.88 56.6874 402.13L49.6674 409.12V412ZM67.152 409.6C67.152 411.16 68.322 412.42 70.032 412.42C71.742 412.42 72.912 411.16 72.912 409.6C72.912 408.07 71.742 406.81 70.032 406.81C68.322 406.81 67.152 408.07 67.152 409.6ZM75.3591 408.19C76.9791 410.8 79.9491 412.42 83.5191 412.42C88.2591 412.42 91.6791 409.51 91.6791 405.01C91.6791 401.14 88.7391 398.26 84.5991 398.26C82.9791 398.26 81.7191 398.62 80.7291 399.25L80.9691 395.44H90.2391V391H77.2491L76.5291 402.4L79.2891 403.6C80.3091 402.82 81.5691 402.22 83.1891 402.22C85.4391 402.22 86.8191 403.39 86.8191 405.19C86.8191 406.93 85.4091 408.07 83.3691 408.07C81.4491 408.07 79.8891 407.05 78.8391 405.49L75.3591 408.19ZM93.5677 408.19C95.1877 410.8 98.1577 412.42 101.728 412.42C106.468 412.42 109.888 409.51 109.888 405.01C109.888 401.14 106.948 398.26 102.808 398.26C101.188 398.26 99.9277 398.62 98.9377 399.25L99.1777 395.44H108.448V391H95.4577L94.7377 402.4L97.4977 403.6C98.5177 402.82 99.7777 402.22 101.398 402.22C103.648 402.22 105.028 403.39 105.028 405.19C105.028 406.93 103.618 408.07 101.578 408.07C99.6577 408.07 98.0977 407.05 97.0477 405.49L93.5677 408.19ZM111.806 396.07C111.806 399.19 114.146 401.56 117.446 401.56C120.776 401.56 123.086 399.19 123.086 396.07C123.086 392.98 120.776 390.58 117.446 390.58C114.146 390.58 111.806 392.98 111.806 396.07ZM115.616 412H120.296L133.466 391H128.786L115.616 412ZM115.556 396.07C115.556 394.87 116.396 394.09 117.446 394.09C118.526 394.09 119.366 394.87 119.366 396.07C119.366 397.27 118.526 398.05 117.446 398.05C116.396 398.05 115.556 397.27 115.556 396.07ZM125.966 406.93C125.966 410.02 128.306 412.42 131.606 412.42C134.936 412.42 137.246 410.02 137.246 406.93C137.246 403.81 134.936 401.44 131.606 401.44C128.276 401.44 125.966 403.81 125.966 406.93ZM129.716 406.93C129.716 405.73 130.556 404.95 131.606 404.95C132.686 404.95 133.526 405.73 133.526 406.93C133.526 408.1 132.686 408.91 131.606 408.91C130.556 408.91 129.716 408.1 129.716 406.93Z" fill="#E371FF"/>
<path d="M37.136 364H40.856V355.048L44.648 360.28H45.776L49.568 355.024V364H53.288V347.08H50.864L45.2 355.216L39.536 347.08H37.136V364ZM55.9186 360.496C55.9186 362.68 57.4066 364.336 59.8786 364.336C61.3186 364.336 62.5666 363.76 63.4306 362.752V364H66.9826V356.44C66.9826 352.96 64.7266 351.064 61.4866 351.064C59.6866 351.064 57.9826 351.544 56.6386 352.216L57.6466 355.048C58.6306 354.544 59.7586 354.208 60.7666 354.208C62.3506 354.208 63.3346 354.952 63.4306 356.704C62.7106 356.536 61.9666 356.44 61.1266 356.44C57.7426 356.44 55.9186 358.168 55.9186 360.496ZM59.3026 360.208C59.3026 359.44 59.9026 358.72 61.4146 358.72C62.1586 358.72 62.7826 358.792 63.4306 358.888V359.104C63.4306 360.496 62.3506 361.552 60.8626 361.552C59.7826 361.552 59.3026 360.904 59.3026 360.208ZM69.989 364H73.541V358.816C73.541 356.176 74.693 355.024 77.429 354.928V351.064C75.653 351.064 74.237 352.12 73.541 353.752V351.376H69.989V364ZM79.2121 364H82.7641V358.504L86.6521 364H90.9241L85.9801 357.376L90.6121 351.376H86.5321L82.7641 356.752V346.48H79.2121V364ZM91.4836 357.736C91.4836 361.456 94.1956 364.336 98.1076 364.336C99.9556 364.336 101.612 363.76 103.076 362.8L101.54 360.256C100.676 360.832 99.4756 361.168 98.3476 361.168C96.6436 361.168 95.4676 360.232 95.1076 358.744H103.436C103.532 358.336 103.556 357.808 103.556 357.376C103.556 353.776 101.3 351.064 97.6276 351.064C93.9316 351.064 91.4836 353.968 91.4836 357.736ZM97.6276 353.968C99.0196 353.968 99.9076 354.952 100.076 356.56H95.0836C95.3956 354.904 96.3556 353.968 97.6276 353.968ZM106.149 359.632C106.149 362.752 107.829 364.336 110.853 364.336C111.645 364.336 112.413 364.24 113.037 364.072L112.821 360.904C112.341 361.024 111.909 361.072 111.549 361.072C110.325 361.072 109.701 360.52 109.701 359.248V354.496H112.869V351.376H109.701V348.592H106.149V351.376H104.373V354.496H106.149V359.632ZM114.394 347.68C114.394 348.88 115.306 349.792 116.626 349.792C117.946 349.792 118.858 348.88 118.858 347.68C118.858 346.48 117.946 345.568 116.626 345.568C115.306 345.568 114.394 346.48 114.394 347.68ZM114.85 364H118.402V351.376H114.85V364ZM121.566 364H125.118V357.592C125.118 355.552 126.222 354.448 127.662 354.448C128.862 354.448 129.846 355.192 129.846 357.16V364H133.398V356.536C133.398 352.96 131.334 351.064 128.91 351.064C127.23 351.064 125.838 351.88 125.118 353.08V351.376H121.566V364ZM135.934 366.616C137.374 367.48 139.198 367.936 141.19 367.936C145.462 367.936 147.766 365.584 147.766 361.792V351.376H144.334V352.552C143.422 351.616 142.222 351.064 140.83 351.064C137.71 351.064 135.454 353.656 135.454 357.04C135.454 360.4 137.71 362.944 140.782 362.944C142.126 362.944 143.326 362.44 144.214 361.6V361.768C144.214 363.784 143.11 364.792 140.83 364.792C139.558 364.792 138.214 364.408 137.182 363.76L135.934 366.616ZM139.078 357.04C139.078 355.408 140.182 354.256 141.766 354.256C143.35 354.256 144.478 355.36 144.478 357.04C144.478 358.72 143.35 359.8 141.766 359.8C140.182 359.8 139.078 358.672 139.078 357.04ZM155.265 359.824C155.265 362.392 157.257 364.336 160.617 364.336C162.153 364.336 163.545 363.88 164.865 363.088L165.561 364H170.097L167.625 360.856C168.369 360.088 169.113 359.248 169.857 358.336L167.097 356.2C166.569 356.944 166.065 357.616 165.561 358.192L163.617 355.72C166.257 354.304 167.049 352.84 167.049 351.16C167.049 348.832 165.057 346.864 162.009 346.864C158.985 346.864 156.993 348.832 156.993 351.28C156.993 352.456 157.569 353.536 158.625 354.928C155.985 356.464 155.265 357.976 155.265 359.824ZM160.665 351.184C160.665 350.392 161.193 349.768 162.009 349.768C162.825 349.768 163.377 350.392 163.377 351.184C163.377 351.976 163.137 352.624 161.721 353.392C161.001 352.48 160.665 351.832 160.665 351.184ZM158.985 359.584C158.985 358.912 159.345 358.144 160.473 357.352L162.969 360.592C162.225 361.072 161.505 361.312 160.857 361.312C159.705 361.312 158.985 360.568 158.985 359.584ZM177.11 364H180.854V358.216H182.798L186.038 364H190.43L186.518 357.76C188.678 356.944 189.926 355.12 189.926 352.792C189.926 349.528 187.598 347.2 183.806 347.2H177.11V364ZM183.494 350.656C185.03 350.656 186.014 351.52 186.014 352.792C186.014 354.064 185.03 354.928 183.494 354.928H180.854V350.656H183.494ZM191.531 357.736C191.531 361.456 194.243 364.336 198.155 364.336C200.003 364.336 201.659 363.76 203.123 362.8L201.587 360.256C200.723 360.832 199.523 361.168 198.395 361.168C196.691 361.168 195.515 360.232 195.155 358.744H203.483C203.579 358.336 203.603 357.808 203.603 357.376C203.603 353.776 201.347 351.064 197.675 351.064C193.979 351.064 191.531 353.968 191.531 357.736ZM197.675 353.968C199.067 353.968 199.955 354.952 200.123 356.56H195.131C195.443 354.904 196.403 353.968 197.675 353.968ZM215.869 364.048H218.725L222.973 351.376H219.253L217.261 358.96L215.053 351.376H212.293L210.037 358.936L208.117 351.376H204.277L208.525 364.048H211.381L213.637 357.4L215.869 364.048ZM223.456 360.496C223.456 362.68 224.944 364.336 227.416 364.336C228.856 364.336 230.104 363.76 230.968 362.752V364H234.52V356.44C234.52 352.96 232.264 351.064 229.024 351.064C227.224 351.064 225.52 351.544 224.176 352.216L225.184 355.048C226.168 354.544 227.296 354.208 228.304 354.208C229.888 354.208 230.872 354.952 230.968 356.704C230.248 356.536 229.504 356.44 228.664 356.44C225.28 356.44 223.456 358.168 223.456 360.496ZM226.84 360.208C226.84 359.44 227.44 358.72 228.952 358.72C229.696 358.72 230.32 358.792 230.968 358.888V359.104C230.968 360.496 229.888 361.552 228.4 361.552C227.32 361.552 226.84 360.904 226.84 360.208ZM237.527 364H241.079V358.816C241.079 356.176 242.231 355.024 244.967 354.928V351.064C243.191 351.064 241.775 352.12 241.079 353.752V351.376H237.527V364ZM245.814 357.688C245.814 361.456 247.974 364.336 251.166 364.336C252.63 364.336 253.878 363.688 254.814 362.632V364H258.222V346.48H254.67V352.6C253.758 351.64 252.558 351.064 251.166 351.064C247.95 351.064 245.814 353.944 245.814 357.688ZM249.438 357.688C249.438 355.672 250.566 354.256 252.174 354.256C253.806 354.256 254.958 355.624 254.958 357.688C254.958 359.752 253.806 361.12 252.174 361.12C250.566 361.12 249.438 359.704 249.438 357.688ZM260.355 362.632C261.579 363.616 263.667 364.288 265.611 364.288C269.043 364.288 270.915 362.608 270.915 360.328C270.915 358.432 269.739 356.968 266.331 356.056C264.819 355.648 264.459 355.288 264.459 354.856C264.459 354.472 264.915 354.064 265.827 354.064C266.835 354.064 268.131 354.424 269.139 355.024L270.387 352.432C269.115 351.664 267.387 351.232 265.851 351.232C262.947 351.232 260.955 352.936 260.955 355.12C260.955 356.896 262.131 358.264 265.107 359.176C266.955 359.752 267.243 360.112 267.243 360.592C267.243 361 266.859 361.36 265.707 361.36C264.483 361.36 262.779 360.808 261.819 359.992L260.355 362.632Z" fill="#E371FF"/>
<path d="M36.29 514.19C37.91 516.8 40.88 518.42 44.45 518.42C49.19 518.42 52.61 515.51 52.61 511.01C52.61 507.14 49.67 504.26 45.53 504.26C43.91 504.26 42.65 504.62 41.66 505.25L41.9 501.44H51.17V497H38.18L37.46 508.4L40.22 509.6C41.24 508.82 42.5 508.22 44.12 508.22C46.37 508.22 47.75 509.39 47.75 511.19C47.75 512.93 46.34 514.07 44.3 514.07C42.38 514.07 40.82 513.05 39.77 511.49L36.29 514.19ZM54.9786 515.6C54.9786 517.16 56.1486 518.42 57.8586 518.42C59.5686 518.42 60.7386 517.16 60.7386 515.6C60.7386 514.07 59.5686 512.81 57.8586 512.81C56.1486 512.81 54.9786 514.07 54.9786 515.6ZM63.3357 511.85C63.3357 515.72 66.5457 518.42 71.6457 518.42C76.7457 518.42 79.9557 515.72 79.9557 511.85C79.9557 509.66 78.7257 507.83 76.5657 506.75C78.2457 505.79 79.2057 504.29 79.2057 502.55C79.2057 499.07 76.2057 496.58 71.6457 496.58C66.9957 496.58 63.9357 499.07 63.9357 502.55C63.9357 504.32 64.9257 505.82 66.6657 506.78C64.5357 507.86 63.3357 509.66 63.3357 511.85ZM68.8257 502.82C68.8257 501.44 70.0257 500.57 71.6457 500.57C73.2357 500.57 74.4057 501.44 74.4057 502.82C74.4057 504.32 73.2357 505.16 71.6457 505.16C70.0257 505.16 68.8257 504.32 68.8257 502.82ZM68.2557 511.61C68.2557 509.69 69.6957 508.7 71.6457 508.7C73.5957 508.7 75.0357 509.69 75.0357 511.61C75.0357 513.38 73.5957 514.37 71.6457 514.37C69.6957 514.37 68.2557 513.38 68.2557 511.61ZM82.0974 514.19C83.7174 516.8 86.6874 518.42 90.2574 518.42C94.9974 518.42 98.4174 515.51 98.4174 511.01C98.4174 507.14 95.4774 504.26 91.3374 504.26C89.7174 504.26 88.4574 504.62 87.4674 505.25L87.7074 501.44H96.9774V497H83.9874L83.2674 508.4L86.0274 509.6C87.0474 508.82 88.3074 508.22 89.9274 508.22C92.1774 508.22 93.5574 509.39 93.5574 511.19C93.5574 512.93 92.1474 514.07 90.1074 514.07C88.1874 514.07 86.6274 513.05 85.5774 511.49L82.0974 514.19ZM100.336 502.07C100.336 505.19 102.676 507.56 105.976 507.56C109.306 507.56 111.616 505.19 111.616 502.07C111.616 498.98 109.306 496.58 105.976 496.58C102.676 496.58 100.336 498.98 100.336 502.07ZM104.146 518H108.826L121.996 497H117.316L104.146 518ZM104.086 502.07C104.086 500.87 104.926 500.09 105.976 500.09C107.056 500.09 107.896 500.87 107.896 502.07C107.896 503.27 107.056 504.05 105.976 504.05C104.926 504.05 104.086 503.27 104.086 502.07ZM114.496 512.93C114.496 516.02 116.836 518.42 120.136 518.42C123.466 518.42 125.776 516.02 125.776 512.93C125.776 509.81 123.466 507.44 120.136 507.44C116.806 507.44 114.496 509.81 114.496 512.93ZM118.246 512.93C118.246 511.73 119.086 510.95 120.136 510.95C121.216 510.95 122.056 511.73 122.056 512.93C122.056 514.1 121.216 514.91 120.136 514.91C119.086 514.91 118.246 514.1 118.246 512.93Z" fill="#FF6DC5"/>
<path d="M35.624 468.032C37.496 469.472 39.944 470.336 42.344 470.336C46.568 470.336 48.992 468.08 48.992 465.176C48.992 462.656 47.48 460.88 43.28 459.776C40.736 459.104 40.112 458.504 40.112 457.736C40.112 456.992 40.784 456.248 42.512 456.248C43.976 456.248 45.44 456.776 46.472 457.496L48.224 454.544C46.592 453.536 44.84 452.864 42.56 452.864C38.792 452.864 36.392 455.264 36.392 457.928C36.392 460.304 37.808 462.152 42.104 463.304C44.504 463.928 45.08 464.552 45.08 465.416C45.08 466.28 44.336 466.952 42.488 466.952C40.568 466.952 38.768 466.136 37.52 465.056L35.624 468.032ZM51.4445 465.632C51.4445 468.752 53.1245 470.336 56.1485 470.336C56.9405 470.336 57.7085 470.24 58.3325 470.072L58.1165 466.904C57.6365 467.024 57.2045 467.072 56.8445 467.072C55.6205 467.072 54.9965 466.52 54.9965 465.248V460.496H58.1645V457.376H54.9965V454.592H51.4445V457.376H49.6685V460.496H51.4445V465.632ZM60.1453 470H63.6973V464.816C63.6973 462.176 64.8493 461.024 67.5853 460.928V457.064C65.8093 457.064 64.3933 458.12 63.6973 459.752V457.376H60.1453V470ZM68.5524 466.496C68.5524 468.68 70.0404 470.336 72.5124 470.336C73.9524 470.336 75.2004 469.76 76.0644 468.752V470H79.6164V462.44C79.6164 458.96 77.3604 457.064 74.1204 457.064C72.3204 457.064 70.6164 457.544 69.2724 458.216L70.2804 461.048C71.2644 460.544 72.3924 460.208 73.4004 460.208C74.9844 460.208 75.9684 460.952 76.0644 462.704C75.3444 462.536 74.6004 462.44 73.7604 462.44C70.3764 462.44 68.5524 464.168 68.5524 466.496ZM71.9364 466.208C71.9364 465.44 72.5364 464.72 74.0484 464.72C74.7924 464.72 75.4164 464.792 76.0644 464.888V465.104C76.0644 466.496 74.9844 467.552 73.4964 467.552C72.4164 467.552 71.9364 466.904 71.9364 466.208ZM82.9108 465.632C82.9108 468.752 84.5908 470.336 87.6148 470.336C88.4068 470.336 89.1748 470.24 89.7988 470.072L89.5828 466.904C89.1028 467.024 88.6708 467.072 88.3108 467.072C87.0868 467.072 86.4628 466.52 86.4628 465.248V460.496H89.6308V457.376H86.4628V454.592H82.9108V457.376H81.1348V460.496H82.9108V465.632ZM90.6755 463.736C90.6755 467.456 93.3875 470.336 97.2995 470.336C99.1475 470.336 100.803 469.76 102.267 468.8L100.731 466.256C99.8675 466.832 98.6675 467.168 97.5395 467.168C95.8355 467.168 94.6595 466.232 94.2995 464.744H102.627C102.723 464.336 102.747 463.808 102.747 463.376C102.747 459.776 100.491 457.064 96.8195 457.064C93.1235 457.064 90.6755 459.968 90.6755 463.736ZM96.8195 459.968C98.2115 459.968 99.0995 460.952 99.2675 462.56H94.2755C94.5875 460.904 95.5475 459.968 96.8195 459.968ZM104.597 472.616C106.037 473.48 107.861 473.936 109.853 473.936C114.125 473.936 116.429 471.584 116.429 467.792V457.376H112.997V458.552C112.085 457.616 110.885 457.064 109.493 457.064C106.373 457.064 104.117 459.656 104.117 463.04C104.117 466.4 106.373 468.944 109.445 468.944C110.789 468.944 111.989 468.44 112.877 467.6V467.768C112.877 469.784 111.773 470.792 109.493 470.792C108.221 470.792 106.877 470.408 105.845 469.76L104.597 472.616ZM107.741 463.04C107.741 461.408 108.845 460.256 110.429 460.256C112.013 460.256 113.141 461.36 113.141 463.04C113.141 464.72 112.013 465.8 110.429 465.8C108.845 465.8 107.741 464.672 107.741 463.04ZM119.141 453.68C119.141 454.88 120.053 455.792 121.373 455.792C122.693 455.792 123.605 454.88 123.605 453.68C123.605 452.48 122.693 451.568 121.373 451.568C120.053 451.568 119.141 452.48 119.141 453.68ZM119.597 470H123.149V457.376H119.597V470ZM125.376 463.688C125.376 467.456 127.968 470.336 131.712 470.336C133.728 470.336 135.504 469.592 136.704 468.416L134.544 465.896C133.992 466.52 133.032 466.976 132.096 466.976C130.296 466.976 129 465.68 129 463.688C129 461.696 130.272 460.424 132.048 460.424C132.936 460.424 133.776 460.76 134.352 461.384L136.584 458.936C135.36 457.76 133.728 457.064 131.712 457.064C127.944 457.064 125.376 459.944 125.376 463.688ZM142.293 468.032C144.165 469.472 146.613 470.336 149.013 470.336C153.237 470.336 155.661 468.08 155.661 465.176C155.661 462.656 154.149 460.88 149.949 459.776C147.405 459.104 146.781 458.504 146.781 457.736C146.781 456.992 147.453 456.248 149.181 456.248C150.645 456.248 152.109 456.776 153.141 457.496L154.893 454.544C153.261 453.536 151.509 452.864 149.229 452.864C145.461 452.864 143.061 455.264 143.061 457.928C143.061 460.304 144.477 462.152 148.773 463.304C151.173 463.928 151.749 464.552 151.749 465.416C151.749 466.28 151.005 466.952 149.157 466.952C147.237 466.952 145.437 466.136 144.189 465.056L142.293 468.032ZM157.009 466.496C157.009 468.68 158.497 470.336 160.969 470.336C162.409 470.336 163.657 469.76 164.521 468.752V470H168.073V462.44C168.073 458.96 165.817 457.064 162.577 457.064C160.777 457.064 159.073 457.544 157.729 458.216L158.737 461.048C159.721 460.544 160.849 460.208 161.857 460.208C163.441 460.208 164.425 460.952 164.521 462.704C163.801 462.536 163.057 462.44 162.217 462.44C158.833 462.44 157.009 464.168 157.009 466.496ZM160.393 466.208C160.393 465.44 160.993 464.72 162.505 464.72C163.249 464.72 163.873 464.792 164.521 464.888V465.104C164.521 466.496 163.441 467.552 161.953 467.552C160.873 467.552 160.393 466.904 160.393 466.208ZM171.08 470H174.632V452.48H171.08V470ZM176.859 463.736C176.859 467.456 179.571 470.336 183.483 470.336C185.331 470.336 186.987 469.76 188.451 468.8L186.915 466.256C186.051 466.832 184.851 467.168 183.723 467.168C182.019 467.168 180.843 466.232 180.483 464.744H188.811C188.907 464.336 188.931 463.808 188.931 463.376C188.931 459.776 186.675 457.064 183.003 457.064C179.307 457.064 176.859 459.968 176.859 463.736ZM183.003 459.968C184.395 459.968 185.283 460.952 185.451 462.56H180.459C180.771 460.904 181.731 459.968 183.003 459.968ZM190.181 468.632C191.405 469.616 193.493 470.288 195.437 470.288C198.869 470.288 200.741 468.608 200.741 466.328C200.741 464.432 199.565 462.968 196.157 462.056C194.645 461.648 194.285 461.288 194.285 460.856C194.285 460.472 194.741 460.064 195.653 460.064C196.661 460.064 197.957 460.424 198.965 461.024L200.213 458.432C198.941 457.664 197.213 457.232 195.677 457.232C192.773 457.232 190.781 458.936 190.781 461.12C190.781 462.896 191.957 464.264 194.933 465.176C196.781 465.752 197.069 466.112 197.069 466.592C197.069 467 196.685 467.36 195.533 467.36C194.309 467.36 192.605 466.808 191.645 465.992L190.181 468.632Z" fill="#FF6DC5"/>
<path d="M36 378H335" stroke="#1F242B"/>
<path d="M36 485H281L366.5 399.5" stroke="#1F242B"/>
<circle cx="335" cy="378" r="2" fill="#1F242B"/>
<circle cx="366" cy="400" r="2" fill="#1F242B"/>
<path d="M660.845 315H671.621V311.544H664.589V298.2H660.845V315ZM673.261 298.68C673.261 299.88 674.173 300.792 675.493 300.792C676.813 300.792 677.725 299.88 677.725 298.68C677.725 297.48 676.813 296.568 675.493 296.568C674.173 296.568 673.261 297.48 673.261 298.68ZM673.717 315H677.269V302.376H673.717V315ZM679.496 308.688C679.496 312.456 681.632 315.336 684.848 315.336C686.24 315.336 687.44 314.76 688.352 313.8V318.6H691.904V302.376H688.496V303.768C687.56 302.712 686.312 302.064 684.848 302.064C681.656 302.064 679.496 304.944 679.496 308.688ZM683.12 308.688C683.12 306.672 684.248 305.256 685.856 305.256C687.488 305.256 688.64 306.624 688.64 308.688C688.64 310.776 687.488 312.12 685.856 312.12C684.248 312.12 683.12 310.728 683.12 308.688ZM694.925 309.864C694.925 313.44 696.989 315.336 699.437 315.336C701.093 315.336 702.485 314.52 703.205 313.296V315H706.757V302.376H703.205V308.784C703.205 310.824 702.101 311.952 700.661 311.952C699.461 311.952 698.477 311.184 698.477 309.24V302.376H694.925V309.864ZM709.461 298.68C709.461 299.88 710.373 300.792 711.693 300.792C713.013 300.792 713.925 299.88 713.925 298.68C713.925 297.48 713.013 296.568 711.693 296.568C710.373 296.568 709.461 297.48 709.461 298.68ZM709.917 315H713.469V302.376H709.917V315ZM715.697 308.688C715.697 312.456 717.857 315.336 721.049 315.336C722.513 315.336 723.761 314.688 724.697 313.632V315H728.105V297.48H724.553V303.6C723.641 302.64 722.441 302.064 721.049 302.064C717.833 302.064 715.697 304.944 715.697 308.688ZM719.321 308.688C719.321 306.672 720.449 305.256 722.057 305.256C723.689 305.256 724.841 306.624 724.841 308.688C724.841 310.752 723.689 312.12 722.057 312.12C720.449 312.12 719.321 310.704 719.321 308.688ZM730.837 298.68C730.837 299.88 731.749 300.792 733.069 300.792C734.389 300.792 735.301 299.88 735.301 298.68C735.301 297.48 734.389 296.568 733.069 296.568C731.749 296.568 730.837 297.48 730.837 298.68ZM731.293 315H734.845V302.376H731.293V315ZM738.297 310.632C738.297 313.752 739.977 315.336 743.001 315.336C743.793 315.336 744.561 315.24 745.185 315.072L744.969 311.904C744.489 312.024 744.057 312.072 743.697 312.072C742.473 312.072 741.849 311.52 741.849 310.248V305.496H745.017V302.376H741.849V299.592H738.297V302.376H736.521V305.496H738.297V310.632ZM746.133 318.528C746.709 318.792 747.501 318.936 748.365 318.936C750.309 318.936 752.109 318.048 753.453 314.712L758.445 302.376H754.701L751.917 310.224L749.181 302.376H745.341L750.165 314.352C749.493 315.648 748.917 315.912 747.885 315.912C747.357 315.912 746.877 315.792 746.469 315.624L746.133 318.528ZM765.287 315H769.031V310.08H771.959C775.895 310.08 778.295 307.68 778.295 304.176C778.295 300.624 775.895 298.2 771.959 298.2H765.287V315ZM771.671 301.656C773.327 301.656 774.359 302.616 774.359 304.176C774.359 305.712 773.327 306.672 771.671 306.672H769.031V301.656H771.671ZM779.356 308.688C779.356 312.48 782.02 315.336 785.788 315.336C789.556 315.336 792.22 312.48 792.22 308.688C792.22 304.92 789.556 302.064 785.788 302.064C782.02 302.064 779.356 304.92 779.356 308.688ZM782.98 308.688C782.98 306.6 784.204 305.28 785.788 305.28C787.372 305.28 788.596 306.6 788.596 308.688C788.596 310.776 787.372 312.096 785.788 312.096C784.204 312.096 782.98 310.776 782.98 308.688ZM793.524 308.688C793.524 312.48 796.188 315.336 799.956 315.336C803.724 315.336 806.388 312.48 806.388 308.688C806.388 304.92 803.724 302.064 799.956 302.064C796.188 302.064 793.524 304.92 793.524 308.688ZM797.148 308.688C797.148 306.6 798.372 305.28 799.956 305.28C801.54 305.28 802.764 306.6 802.764 308.688C802.764 310.776 801.54 312.096 799.956 312.096C798.372 312.096 797.148 310.776 797.148 308.688ZM808.629 315H812.181V297.48H808.629V315Z" fill="#5DCC89"/>
<path d="M724.391 363H729.071V342H725.321L718.211 345.9L720.251 349.65L724.391 347.25V363ZM737.648 363H742.328V342H738.578L731.468 345.9L733.508 349.65L737.648 347.25V363ZM746.675 360.6C746.675 362.16 747.845 363.42 749.555 363.42C751.265 363.42 752.435 362.16 752.435 360.6C752.435 359.07 751.265 357.81 749.555 357.81C747.845 357.81 746.675 359.07 746.675 360.6ZM756.025 363H761.185L768.025 344.88V342H753.145V346.56H762.745L756.025 363ZM769.725 348.81C769.725 352.86 772.425 355.5 776.235 355.5C778.125 355.5 779.895 354.72 781.065 353.31C780.165 356.43 777.585 358.29 772.035 358.98L772.515 363.42C780.585 362.76 786.075 357.6 786.075 350.52C786.075 344.91 782.715 341.58 777.675 341.58C773.055 341.58 769.725 344.73 769.725 348.81ZM774.555 348.69C774.555 346.8 775.935 345.57 777.885 345.57C779.535 345.57 781.155 346.74 781.155 348.63C781.155 350.49 779.715 351.72 777.765 351.72C775.905 351.72 774.555 350.52 774.555 348.69ZM788.224 347.07C788.224 350.19 790.564 352.56 793.864 352.56C797.194 352.56 799.504 350.19 799.504 347.07C799.504 343.98 797.194 341.58 793.864 341.58C790.564 341.58 788.224 343.98 788.224 347.07ZM792.034 363H796.714L809.884 342H805.204L792.034 363ZM791.974 347.07C791.974 345.87 792.814 345.09 793.864 345.09C794.944 345.09 795.784 345.87 795.784 347.07C795.784 348.27 794.944 349.05 793.864 349.05C792.814 349.05 791.974 348.27 791.974 347.07ZM802.384 357.93C802.384 361.02 804.724 363.42 808.024 363.42C811.354 363.42 813.664 361.02 813.664 357.93C813.664 354.81 811.354 352.44 808.024 352.44C804.694 352.44 802.384 354.81 802.384 357.93ZM806.134 357.93C806.134 356.73 806.974 355.95 808.024 355.95C809.104 355.95 809.944 356.73 809.944 357.93C809.944 359.1 809.104 359.91 808.024 359.91C806.974 359.91 806.134 359.1 806.134 357.93Z" fill="#5DCC89"/>
<path d="M814.499 329L526.998 329L479 377" stroke="#1F242B"/>
<circle cx="479" cy="377" r="2" fill="#1F242B"/>
<path d="M591.761 417.6C591.761 422.616 595.241 426.336 600.161 426.336C602.657 426.336 604.841 425.232 606.113 423.792L603.593 421.104C602.729 422.088 601.433 422.64 600.089 422.64C597.497 422.64 595.673 420.552 595.673 417.6C595.673 414.648 597.545 412.56 600.161 412.56C601.457 412.56 602.633 413.088 603.425 414.072L605.993 411.408C604.745 409.92 602.609 408.864 600.089 408.864C595.289 408.864 591.761 412.608 591.761 417.6ZM607.166 419.688C607.166 423.48 609.83 426.336 613.598 426.336C617.366 426.336 620.03 423.48 620.03 419.688C620.03 415.92 617.366 413.064 613.598 413.064C609.83 413.064 607.166 415.92 607.166 419.688ZM610.79 419.688C610.79 417.6 612.014 416.28 613.598 416.28C615.182 416.28 616.406 417.6 616.406 419.688C616.406 421.776 615.182 423.096 613.598 423.096C612.014 423.096 610.79 421.776 610.79 419.688ZM622.271 426H625.823V419.64C625.823 417.48 626.855 416.448 628.199 416.448C629.303 416.448 630.191 417.192 630.191 419.16V426H633.743V419.64C633.743 417.48 634.775 416.448 636.119 416.448C637.223 416.448 638.087 417.192 638.087 419.16V426H641.639V418.536C641.639 414.888 639.647 413.064 637.175 413.064C635.615 413.064 634.103 413.736 633.071 415.392C632.303 413.856 630.911 413.064 629.327 413.064C627.839 413.064 626.519 413.88 625.823 415.08V413.376H622.271V426ZM644.642 426H648.194V419.64C648.194 417.48 649.226 416.448 650.57 416.448C651.674 416.448 652.562 417.192 652.562 419.16V426H656.114V419.64C656.114 417.48 657.146 416.448 658.49 416.448C659.594 416.448 660.458 417.192 660.458 419.16V426H664.01V418.536C664.01 414.888 662.018 413.064 659.546 413.064C657.986 413.064 656.474 413.736 655.442 415.392C654.674 413.856 653.282 413.064 651.698 413.064C650.21 413.064 648.89 413.88 648.194 415.08V413.376H644.642V426ZM666.846 420.864C666.846 424.44 668.91 426.336 671.358 426.336C673.014 426.336 674.406 425.52 675.126 424.296V426H678.678V413.376H675.126V419.784C675.126 421.824 674.022 422.952 672.582 422.952C671.382 422.952 670.398 422.184 670.398 420.24V413.376H666.846V420.864ZM681.838 426H685.39V419.592C685.39 417.552 686.494 416.448 687.934 416.448C689.134 416.448 690.118 417.192 690.118 419.16V426H693.67V418.536C693.67 414.96 691.606 413.064 689.182 413.064C687.502 413.064 686.11 413.88 685.39 415.08V413.376H681.838V426ZM696.207 409.68C696.207 410.88 697.119 411.792 698.439 411.792C699.759 411.792 700.671 410.88 700.671 409.68C700.671 408.48 699.759 407.568 698.439 407.568C697.119 407.568 696.207 408.48 696.207 409.68ZM696.663 426H700.215V413.376H696.663V426ZM703.666 421.632C703.666 424.752 705.346 426.336 708.37 426.336C709.162 426.336 709.93 426.24 710.554 426.072L710.338 422.904C709.858 423.024 709.426 423.072 709.066 423.072C707.842 423.072 707.218 422.52 707.218 421.248V416.496H710.386V413.376H707.218V410.592H703.666V413.376H701.89V416.496H703.666V421.632ZM711.503 429.528C712.079 429.792 712.871 429.936 713.735 429.936C715.679 429.936 717.479 429.048 718.823 425.712L723.815 413.376H720.071L717.287 421.224L714.551 413.376H710.711L715.535 425.352C714.863 426.648 714.287 426.912 713.255 426.912C712.727 426.912 712.247 426.792 711.839 426.624L711.503 429.528ZM728.761 426H732.625L733.777 422.928H739.969L741.097 426H745.129L738.433 409.152H735.433L728.761 426ZM735.001 419.712L736.921 414.648L738.793 419.712H735.001ZM746.237 409.68C746.237 410.88 747.149 411.792 748.469 411.792C749.789 411.792 750.701 410.88 750.701 409.68C750.701 408.48 749.789 407.568 748.469 407.568C747.149 407.568 746.237 408.48 746.237 409.68ZM746.693 426H750.245V413.376H746.693V426ZM753.408 426H756.96V420.816C756.96 418.176 758.112 417.024 760.848 416.928V413.064C759.072 413.064 757.656 414.12 756.96 415.752V413.376H753.408V426ZM761.695 419.688C761.695 423.456 763.855 426.336 767.047 426.336C768.511 426.336 769.759 425.688 770.695 424.632V426H774.103V408.48H770.551V414.6C769.639 413.64 768.439 413.064 767.047 413.064C763.831 413.064 761.695 415.944 761.695 419.688ZM765.319 419.688C765.319 417.672 766.447 416.256 768.055 416.256C769.687 416.256 770.839 417.624 770.839 419.688C770.839 421.752 769.687 423.12 768.055 423.12C766.447 423.12 765.319 421.704 765.319 419.688ZM777.292 426H780.844V420.816C780.844 418.176 781.996 417.024 784.732 416.928V413.064C782.956 413.064 781.54 414.12 780.844 415.752V413.376H777.292V426ZM785.579 419.688C785.579 423.48 788.243 426.336 792.011 426.336C795.779 426.336 798.443 423.48 798.443 419.688C798.443 415.92 795.779 413.064 792.011 413.064C788.243 413.064 785.579 415.92 785.579 419.688ZM789.203 419.688C789.203 417.6 790.427 416.28 792.011 416.28C793.595 416.28 794.819 417.6 794.819 419.688C794.819 421.776 793.595 423.096 792.011 423.096C790.427 423.096 789.203 421.776 789.203 419.688ZM800.683 429.6H804.235V424.776C805.147 425.76 806.347 426.336 807.739 426.336C810.955 426.336 813.115 423.456 813.115 419.688C813.115 415.944 810.955 413.064 807.739 413.064C806.299 413.064 805.051 413.688 804.115 414.744V413.376H800.683V429.6ZM803.971 419.688C803.971 417.624 805.099 416.256 806.755 416.256C808.339 416.256 809.491 417.672 809.491 419.688C809.491 421.728 808.339 423.12 806.755 423.12C805.099 423.12 803.971 421.776 803.971 419.688Z" fill="#56DDCD"/>
<path d="M725.998 463.5C725.998 470.28 729.448 474.42 734.578 474.42C739.738 474.42 743.188 470.28 743.188 463.5C743.188 456.72 739.738 452.58 734.578 452.58C729.448 452.58 725.998 456.72 725.998 463.5ZM730.918 463.5C730.918 458.94 732.538 456.99 734.578 456.99C736.618 456.99 738.268 458.94 738.268 463.5C738.268 468.06 736.618 470.01 734.578 470.01C732.538 470.01 730.918 468.06 730.918 463.5ZM745.211 471.6C745.211 473.16 746.381 474.42 748.091 474.42C749.801 474.42 750.971 473.16 750.971 471.6C750.971 470.07 749.801 468.81 748.091 468.81C746.381 468.81 745.211 470.07 745.211 471.6ZM751.751 459.81C751.751 463.86 754.451 466.5 758.261 466.5C760.151 466.5 761.921 465.72 763.091 464.31C762.191 467.43 759.611 469.29 754.061 469.98L754.541 474.42C762.611 473.76 768.101 468.6 768.101 461.52C768.101 455.91 764.741 452.58 759.701 452.58C755.081 452.58 751.751 455.73 751.751 459.81ZM756.581 459.69C756.581 457.8 757.961 456.57 759.911 456.57C761.561 456.57 763.181 457.74 763.181 459.63C763.181 461.49 761.741 462.72 759.791 462.72C757.931 462.72 756.581 461.52 756.581 459.69ZM769.95 470.16H779.34V474H784.02V470.16H786.63V466.05H784.02V453H778.05L769.95 467.28V470.16ZM774.78 466.05L779.34 457.95V466.05H774.78ZM788.224 458.07C788.224 461.19 790.564 463.56 793.864 463.56C797.194 463.56 799.504 461.19 799.504 458.07C799.504 454.98 797.194 452.58 793.864 452.58C790.564 452.58 788.224 454.98 788.224 458.07ZM792.034 474H796.714L809.884 453H805.204L792.034 474ZM791.974 458.07C791.974 456.87 792.814 456.09 793.864 456.09C794.944 456.09 795.784 456.87 795.784 458.07C795.784 459.27 794.944 460.05 793.864 460.05C792.814 460.05 791.974 459.27 791.974 458.07ZM802.384 468.93C802.384 472.02 804.724 474.42 808.024 474.42C811.354 474.42 813.664 472.02 813.664 468.93C813.664 465.81 811.354 463.44 808.024 463.44C804.694 463.44 802.384 465.81 802.384 468.93ZM806.134 468.93C806.134 467.73 806.974 466.95 808.024 466.95C809.104 466.95 809.944 467.73 809.944 468.93C809.944 470.1 809.104 470.91 808.024 470.91C806.974 470.91 806.134 470.1 806.134 468.93Z" fill="#56DDCD"/>
<path d="M617.825 195.6C617.825 200.664 621.281 204.336 626.225 204.336C628.913 204.336 631.553 203.208 633.065 201.72V194.592H626.321V197.832H629.465V200.088C628.673 200.592 627.617 200.904 626.369 200.904C623.537 200.904 621.737 198.84 621.737 195.6C621.737 192.6 623.657 190.56 626.393 190.56C627.809 190.56 629.105 191.112 629.945 192.072L632.465 189.312C631.169 187.848 628.961 186.864 626.369 186.864C621.401 186.864 617.825 190.608 617.825 195.6ZM635.248 200.496C635.248 202.68 636.736 204.336 639.208 204.336C640.648 204.336 641.896 203.76 642.76 202.752V204H646.312V196.44C646.312 192.96 644.056 191.064 640.816 191.064C639.016 191.064 637.312 191.544 635.968 192.216L636.976 195.048C637.96 194.544 639.088 194.208 640.096 194.208C641.68 194.208 642.664 194.952 642.76 196.704C642.04 196.536 641.296 196.44 640.456 196.44C637.072 196.44 635.248 198.168 635.248 200.496ZM638.632 200.208C638.632 199.44 639.232 198.72 640.744 198.72C641.488 198.72 642.112 198.792 642.76 198.888V199.104C642.76 200.496 641.68 201.552 640.192 201.552C639.112 201.552 638.632 200.904 638.632 200.208ZM649.318 204H652.87V197.64C652.87 195.48 653.902 194.448 655.246 194.448C656.35 194.448 657.238 195.192 657.238 197.16V204H660.79V197.64C660.79 195.48 661.822 194.448 663.166 194.448C664.27 194.448 665.134 195.192 665.134 197.16V204H668.686V196.536C668.686 192.888 666.694 191.064 664.222 191.064C662.662 191.064 661.15 191.736 660.118 193.392C659.35 191.856 657.958 191.064 656.374 191.064C654.886 191.064 653.566 191.88 652.87 193.08V191.376H649.318V204ZM670.754 197.736C670.754 201.456 673.466 204.336 677.378 204.336C679.226 204.336 680.882 203.76 682.346 202.8L680.81 200.256C679.946 200.832 678.746 201.168 677.618 201.168C675.914 201.168 674.738 200.232 674.378 198.744H682.706C682.802 198.336 682.826 197.808 682.826 197.376C682.826 193.776 680.57 191.064 676.898 191.064C673.202 191.064 670.754 193.968 670.754 197.736ZM676.898 193.968C678.29 193.968 679.178 194.952 679.346 196.56H674.354C674.666 194.904 675.626 193.968 676.898 193.968ZM689.464 195.6C689.464 200.688 692.944 204.336 697.696 204.336C702.448 204.336 705.928 200.688 705.928 195.6C705.928 190.512 702.448 186.864 697.696 186.864C692.944 186.864 689.464 190.512 689.464 195.6ZM693.376 195.6C693.376 192.576 695.152 190.44 697.696 190.44C700.216 190.44 701.992 192.576 701.992 195.6C701.992 198.624 700.216 200.76 697.696 200.76C695.152 200.76 693.376 198.624 693.376 195.6ZM708.406 207.6H711.958V202.776C712.87 203.76 714.07 204.336 715.462 204.336C718.678 204.336 720.838 201.456 720.838 197.688C720.838 193.944 718.678 191.064 715.462 191.064C714.022 191.064 712.774 191.688 711.838 192.744V191.376H708.406V207.6ZM711.694 197.688C711.694 195.624 712.822 194.256 714.478 194.256C716.062 194.256 717.214 195.672 717.214 197.688C717.214 199.728 716.062 201.12 714.478 201.12C712.822 201.12 711.694 199.776 711.694 197.688ZM722.131 197.736C722.131 201.456 724.843 204.336 728.755 204.336C730.603 204.336 732.259 203.76 733.723 202.8L732.187 200.256C731.323 200.832 730.123 201.168 728.995 201.168C727.291 201.168 726.115 200.232 725.755 198.744H734.083C734.179 198.336 734.203 197.808 734.203 197.376C734.203 193.776 731.947 191.064 728.275 191.064C724.579 191.064 722.131 193.968 722.131 197.736ZM728.275 193.968C729.667 193.968 730.555 194.952 730.723 196.56H725.731C726.043 194.904 727.003 193.968 728.275 193.968ZM736.509 204H740.061V198.816C740.061 196.176 741.213 195.024 743.949 194.928V191.064C742.173 191.064 740.757 192.12 740.061 193.752V191.376H736.509V204ZM744.916 200.496C744.916 202.68 746.404 204.336 748.876 204.336C750.316 204.336 751.564 203.76 752.428 202.752V204H755.98V196.44C755.98 192.96 753.724 191.064 750.484 191.064C748.684 191.064 746.98 191.544 745.636 192.216L746.644 195.048C747.628 194.544 748.756 194.208 749.764 194.208C751.348 194.208 752.332 194.952 752.428 196.704C751.708 196.536 750.964 196.44 750.124 196.44C746.74 196.44 744.916 198.168 744.916 200.496ZM748.3 200.208C748.3 199.44 748.9 198.72 750.412 198.72C751.156 198.72 751.78 198.792 752.428 198.888V199.104C752.428 200.496 751.348 201.552 749.86 201.552C748.78 201.552 748.3 200.904 748.3 200.208ZM759.274 199.632C759.274 202.752 760.954 204.336 763.978 204.336C764.77 204.336 765.538 204.24 766.162 204.072L765.946 200.904C765.466 201.024 765.034 201.072 764.674 201.072C763.45 201.072 762.826 200.52 762.826 199.248V194.496H765.994V191.376H762.826V188.592H759.274V191.376H757.498V194.496H759.274V199.632ZM767.519 187.68C767.519 188.88 768.431 189.792 769.751 189.792C771.071 189.792 771.983 188.88 771.983 187.68C771.983 186.48 771.071 185.568 769.751 185.568C768.431 185.568 767.519 186.48 767.519 187.68ZM767.975 204H771.527V191.376H767.975V204ZM773.754 197.688C773.754 201.48 776.418 204.336 780.186 204.336C783.954 204.336 786.618 201.48 786.618 197.688C786.618 193.92 783.954 191.064 780.186 191.064C776.418 191.064 773.754 193.92 773.754 197.688ZM777.378 197.688C777.378 195.6 778.602 194.28 780.186 194.28C781.77 194.28 782.994 195.6 782.994 197.688C782.994 199.776 781.77 201.096 780.186 201.096C778.602 201.096 777.378 199.776 777.378 197.688ZM788.859 204H792.411V197.592C792.411 195.552 793.515 194.448 794.955 194.448C796.155 194.448 797.139 195.192 797.139 197.16V204H800.691V196.536C800.691 192.96 798.627 191.064 796.203 191.064C794.523 191.064 793.131 191.88 792.411 193.08V191.376H788.859V204ZM802.627 202.632C803.851 203.616 805.939 204.288 807.883 204.288C811.315 204.288 813.187 202.608 813.187 200.328C813.187 198.432 812.011 196.968 808.603 196.056C807.091 195.648 806.731 195.288 806.731 194.856C806.731 194.472 807.187 194.064 808.099 194.064C809.107 194.064 810.403 194.424 811.411 195.024L812.659 192.432C811.387 191.664 809.659 191.232 808.123 191.232C805.219 191.232 803.227 192.936 803.227 195.12C803.227 196.896 804.403 198.264 807.379 199.176C809.227 199.752 809.515 200.112 809.515 200.592C809.515 201 809.131 201.36 807.979 201.36C806.755 201.36 805.051 200.808 804.091 199.992L802.627 202.632Z" fill="#28B68F"/>
<path d="M708.258 252H723.228V247.68H715.428L718.488 244.83C721.578 241.95 722.988 239.79 722.988 237.18C722.988 233.37 720.018 230.61 715.638 230.61C712.308 230.61 709.578 232.41 708.108 235.44L711.648 237.81C712.518 236.07 713.748 235.05 715.368 235.05C716.928 235.05 718.098 236.16 718.098 237.57C718.098 238.8 717.528 239.88 715.278 242.13L708.258 249.12V252ZM725.262 248.19C726.882 250.8 729.852 252.42 733.422 252.42C738.162 252.42 741.582 249.51 741.582 245.01C741.582 241.14 738.642 238.26 734.502 238.26C732.882 238.26 731.622 238.62 730.632 239.25L730.872 235.44H740.142V231H727.152L726.432 242.4L729.192 243.6C730.212 242.82 731.472 242.22 733.092 242.22C735.342 242.22 736.722 243.39 736.722 245.19C736.722 246.93 735.312 248.07 733.272 248.07C731.352 248.07 729.792 247.05 728.742 245.49L725.262 248.19ZM743.951 249.6C743.951 251.16 745.121 252.42 746.831 252.42C748.541 252.42 749.711 251.16 749.711 249.6C749.711 248.07 748.541 246.81 746.831 246.81C745.121 246.81 743.951 248.07 743.951 249.6ZM752.278 252H767.248V247.68H759.448L762.508 244.83C765.598 241.95 767.008 239.79 767.008 237.18C767.008 233.37 764.038 230.61 759.658 230.61C756.328 230.61 753.598 232.41 752.128 235.44L755.668 237.81C756.538 236.07 757.768 235.05 759.388 235.05C760.948 235.05 762.118 236.16 762.118 237.57C762.118 238.8 761.548 239.88 759.298 242.13L752.278 249.12V252ZM769.433 245.85C769.433 249.72 772.643 252.42 777.743 252.42C782.843 252.42 786.053 249.72 786.053 245.85C786.053 243.66 784.823 241.83 782.663 240.75C784.343 239.79 785.303 238.29 785.303 236.55C785.303 233.07 782.303 230.58 777.743 230.58C773.093 230.58 770.033 233.07 770.033 236.55C770.033 238.32 771.023 239.82 772.763 240.78C770.633 241.86 769.433 243.66 769.433 245.85ZM774.923 236.82C774.923 235.44 776.123 234.57 777.743 234.57C779.333 234.57 780.503 235.44 780.503 236.82C780.503 238.32 779.333 239.16 777.743 239.16C776.123 239.16 774.923 238.32 774.923 236.82ZM774.353 245.61C774.353 243.69 775.793 242.7 777.743 242.7C779.693 242.7 781.133 243.69 781.133 245.61C781.133 247.38 779.693 248.37 777.743 248.37C775.793 248.37 774.353 247.38 774.353 245.61ZM788.224 236.07C788.224 239.19 790.564 241.56 793.864 241.56C797.194 241.56 799.504 239.19 799.504 236.07C799.504 232.98 797.194 230.58 793.864 230.58C790.564 230.58 788.224 232.98 788.224 236.07ZM792.034 252H796.714L809.884 231H805.204L792.034 252ZM791.974 236.07C791.974 234.87 792.814 234.09 793.864 234.09C794.944 234.09 795.784 234.87 795.784 236.07C795.784 237.27 794.944 238.05 793.864 238.05C792.814 238.05 791.974 237.27 791.974 236.07ZM802.384 246.93C802.384 250.02 804.724 252.42 808.024 252.42C811.354 252.42 813.664 250.02 813.664 246.93C813.664 243.81 811.354 241.44 808.024 241.44C804.694 241.44 802.384 243.81 802.384 246.93ZM806.134 246.93C806.134 245.73 806.974 244.95 808.024 244.95C809.104 244.95 809.944 245.73 809.944 246.93C809.944 248.1 809.104 248.91 808.024 248.91C806.974 248.91 806.134 248.1 806.134 246.93Z" fill="#28B68F"/>
<path d="M555 218L815 218" stroke="#1F242B"/>
<circle cx="555" cy="218" r="2" fill="#1F242B"/>
<path d="M725.001 141H739.971V136.68H732.171L735.231 133.83C738.321 130.95 739.731 128.79 739.731 126.18C739.731 122.37 736.761 119.61 732.381 119.61C729.051 119.61 726.321 121.41 724.851 124.44L728.391 126.81C729.261 125.07 730.491 124.05 732.111 124.05C733.671 124.05 734.841 125.16 734.841 126.57C734.841 127.8 734.271 128.88 732.021 131.13L725.001 138.12V141ZM742.486 138.6C742.486 140.16 743.656 141.42 745.366 141.42C747.076 141.42 748.246 140.16 748.246 138.6C748.246 137.07 747.076 135.81 745.366 135.81C743.656 135.81 742.486 137.07 742.486 138.6ZM750.843 134.85C750.843 138.72 754.053 141.42 759.153 141.42C764.253 141.42 767.463 138.72 767.463 134.85C767.463 132.66 766.233 130.83 764.073 129.75C765.753 128.79 766.713 127.29 766.713 125.55C766.713 122.07 763.713 119.58 759.153 119.58C754.503 119.58 751.443 122.07 751.443 125.55C751.443 127.32 752.433 128.82 754.173 129.78C752.043 130.86 750.843 132.66 750.843 134.85ZM756.333 125.82C756.333 124.44 757.533 123.57 759.153 123.57C760.743 123.57 761.913 124.44 761.913 125.82C761.913 127.32 760.743 128.16 759.153 128.16C757.533 128.16 756.333 127.32 756.333 125.82ZM755.763 134.61C755.763 132.69 757.203 131.7 759.153 131.7C761.103 131.7 762.543 132.69 762.543 134.61C762.543 136.38 761.103 137.37 759.153 137.37C757.203 137.37 755.763 136.38 755.763 134.61ZM769.755 132.48C769.755 138.09 773.085 141.42 778.155 141.42C782.775 141.42 786.105 138.27 786.105 134.19C786.105 130.14 783.405 127.5 779.595 127.5C777.675 127.5 775.905 128.28 774.765 129.66C775.665 126.57 778.245 124.71 783.795 124.02L783.315 119.58C775.245 120.24 769.755 125.4 769.755 132.48ZM774.675 134.37C774.675 132.51 776.115 131.28 778.065 131.28C779.925 131.28 781.275 132.48 781.275 134.31C781.275 136.2 779.895 137.43 777.945 137.43C776.265 137.43 774.675 136.26 774.675 134.37ZM788.224 125.07C788.224 128.19 790.564 130.56 793.864 130.56C797.194 130.56 799.504 128.19 799.504 125.07C799.504 121.98 797.194 119.58 793.864 119.58C790.564 119.58 788.224 121.98 788.224 125.07ZM792.034 141H796.714L809.884 120H805.204L792.034 141ZM791.974 125.07C791.974 123.87 792.814 123.09 793.864 123.09C794.944 123.09 795.784 123.87 795.784 125.07C795.784 126.27 794.944 127.05 793.864 127.05C792.814 127.05 791.974 126.27 791.974 125.07ZM802.384 135.93C802.384 139.02 804.724 141.42 808.024 141.42C811.354 141.42 813.664 139.02 813.664 135.93C813.664 132.81 811.354 130.44 808.024 130.44C804.694 130.44 802.384 132.81 802.384 135.93ZM806.134 135.93C806.134 134.73 806.974 133.95 808.024 133.95C809.104 133.95 809.944 134.73 809.944 135.93C809.944 137.1 809.104 137.91 808.024 137.91C806.974 137.91 806.134 137.1 806.134 135.93Z" fill="#2196BB"/>
<path d="M682.994 93H686.738V88.08H689.666C693.602 88.08 696.002 85.68 696.002 82.176C696.002 78.624 693.602 76.2 689.666 76.2H682.994V93ZM689.378 79.656C691.034 79.656 692.066 80.616 692.066 82.176C692.066 83.712 691.034 84.672 689.378 84.672H686.738V79.656H689.378ZM698.233 93H701.785V87.816C701.785 85.176 702.937 84.024 705.673 83.928V80.064C703.897 80.064 702.481 81.12 701.785 82.752V80.376H698.233V93ZM707 76.68C707 77.88 707.912 78.792 709.232 78.792C710.553 78.792 711.465 77.88 711.465 76.68C711.465 75.48 710.553 74.568 709.232 74.568C707.912 74.568 707 75.48 707 76.68ZM707.456 93H711.008V80.376H707.456V93ZM717.628 93.048H720.484L725.62 80.376H721.876L719.068 88.2L716.356 80.376H712.516L717.628 93.048ZM726.071 89.496C726.071 91.68 727.559 93.336 730.031 93.336C731.471 93.336 732.719 92.76 733.583 91.752V93H737.135V85.44C737.135 81.96 734.879 80.064 731.639 80.064C729.839 80.064 728.135 80.544 726.791 81.216L727.799 84.048C728.783 83.544 729.911 83.208 730.919 83.208C732.503 83.208 733.487 83.952 733.583 85.704C732.863 85.536 732.119 85.44 731.279 85.44C727.895 85.44 726.071 87.168 726.071 89.496ZM729.455 89.208C729.455 88.44 730.055 87.72 731.567 87.72C732.311 87.72 732.935 87.792 733.583 87.888V88.104C733.583 89.496 732.503 90.552 731.015 90.552C729.935 90.552 729.455 89.904 729.455 89.208ZM740.429 88.632C740.429 91.752 742.109 93.336 745.133 93.336C745.925 93.336 746.693 93.24 747.317 93.072L747.101 89.904C746.621 90.024 746.189 90.072 745.829 90.072C744.605 90.072 743.981 89.52 743.981 88.248V83.496H747.149V80.376H743.981V77.592H740.429V80.376H738.653V83.496H740.429V88.632ZM748.194 86.736C748.194 90.456 750.906 93.336 754.818 93.336C756.666 93.336 758.322 92.76 759.786 91.8L758.25 89.256C757.386 89.832 756.186 90.168 755.058 90.168C753.354 90.168 752.178 89.232 751.818 87.744H760.146C760.242 87.336 760.266 86.808 760.266 86.376C760.266 82.776 758.01 80.064 754.338 80.064C750.642 80.064 748.194 82.968 748.194 86.736ZM754.338 82.968C755.73 82.968 756.618 83.952 756.786 85.56H751.794C752.106 83.904 753.066 82.968 754.338 82.968ZM766.4 91.032C768.272 92.472 770.72 93.336 773.12 93.336C777.344 93.336 779.768 91.08 779.768 88.176C779.768 85.656 778.256 83.88 774.056 82.776C771.512 82.104 770.888 81.504 770.888 80.736C770.888 79.992 771.56 79.248 773.288 79.248C774.752 79.248 776.216 79.776 777.248 80.496L779 77.544C777.368 76.536 775.616 75.864 773.336 75.864C769.568 75.864 767.168 78.264 767.168 80.928C767.168 83.304 768.584 85.152 772.88 86.304C775.28 86.928 775.856 87.552 775.856 88.416C775.856 89.28 775.112 89.952 773.264 89.952C771.344 89.952 769.544 89.136 768.296 88.056L766.4 91.032ZM781.116 89.496C781.116 91.68 782.604 93.336 785.076 93.336C786.516 93.336 787.764 92.76 788.628 91.752V93H792.18V85.44C792.18 81.96 789.924 80.064 786.684 80.064C784.884 80.064 783.18 80.544 781.836 81.216L782.844 84.048C783.828 83.544 784.956 83.208 785.964 83.208C787.548 83.208 788.532 83.952 788.628 85.704C787.908 85.536 787.164 85.44 786.324 85.44C782.94 85.44 781.116 87.168 781.116 89.496ZM784.5 89.208C784.5 88.44 785.1 87.72 786.612 87.72C787.356 87.72 787.98 87.792 788.628 87.888V88.104C788.628 89.496 787.548 90.552 786.06 90.552C784.98 90.552 784.5 89.904 784.5 89.208ZM795.187 93H798.739V75.48H795.187V93ZM800.966 86.736C800.966 90.456 803.678 93.336 807.59 93.336C809.438 93.336 811.094 92.76 812.558 91.8L811.022 89.256C810.158 89.832 808.958 90.168 807.83 90.168C806.126 90.168 804.95 89.232 804.59 87.744H812.918C813.014 87.336 813.038 86.808 813.038 86.376C813.038 82.776 810.782 80.064 807.11 80.064C803.414 80.064 800.966 82.968 800.966 86.736ZM807.11 82.968C808.502 82.968 809.39 83.952 809.558 85.56H804.566C804.878 83.904 805.838 82.968 807.11 82.968Z" fill="#2196BB"/>
<path d="M814 107L593 107L508 143.5" stroke="#1F242B"/>
<circle cx="507" cy="144" r="2" fill="#1F242B"/>
<circle cx="392" cy="119" r="2" fill="#1F242B"/>
<circle cx="310" cy="166" r="2" fill="#1F242B"/>
<path d="M812 440L450.5 440L413 402.5" stroke="#1F242B"/>
<circle cx="413" cy="402" r="2" fill="#1F242B"/>
<defs>
<filter id="filter0_dd" x="248.906" y="85.9098" width="351.721" height="360.74" filterUnits="userSpaceOnUse" color-interpolation-filters="sRGB">
<feFlood flood-opacity="0" result="BackgroundImageFix"/>
<feColorMatrix in="SourceAlpha" type="matrix" values="0 0 0 0 0 0 0 0 0 0 0 0 0 0 0 0 0 0 127 0"/>
<feOffset/>
<feGaussianBlur stdDeviation="9.01849"/>
<feColorMatrix type="matrix" values="0 0 0 0 0.290196 0 0 0 0 0.356863 0 0 0 0 1 0 0 0 0.16 0"/>
<feBlend mode="normal" in2="BackgroundImageFix" result="effect1_dropShadow"/>
<feColorMatrix in="SourceAlpha" type="matrix" values="0 0 0 0 0 0 0 0 0 0 0 0 0 0 0 0 0 0 127 0"/>
<feOffset dy="9.01849"/>
<feGaussianBlur stdDeviation="9.01849"/>
<feColorMatrix type="matrix" values="0 0 0 0 0.290196 0 0 0 0 0.356863 0 0 0 0 1 0 0 0 0.16 0"/>
<feBlend mode="normal" in2="effect1_dropShadow" result="effect2_dropShadow"/>
<feBlend mode="normal" in="SourceGraphic" in2="effect2_dropShadow" result="shape"/>
</filter>
<filter id="filter1_i" x="337" y="176" width="174" height="174" filterUnits="userSpaceOnUse" color-interpolation-filters="sRGB">
<feFlood flood-opacity="0" result="BackgroundImageFix"/>
<feBlend mode="normal" in="SourceGraphic" in2="BackgroundImageFix" result="shape"/>
<feColorMatrix in="SourceAlpha" type="matrix" values="0 0 0 0 0 0 0 0 0 0 0 0 0 0 0 0 0 0 127 0" result="hardAlpha"/>
<feOffset dx="-2" dy="2"/>
<feGaussianBlur stdDeviation="2"/>
<feComposite in2="hardAlpha" operator="arithmetic" k2="-1" k3="1"/>
<feColorMatrix type="matrix" values="0 0 0 0 0.427451 0 0 0 0 0.713726 0 0 0 0 1 0 0 0 0.4 0"/>
<feBlend mode="normal" in2="shape" result="effect1_innerShadow"/>
</filter>
<filter id="filter2_d" x="357" y="194" width="136" height="136" filterUnits="userSpaceOnUse" color-interpolation-filters="sRGB">
<feFlood flood-opacity="0" result="BackgroundImageFix"/>
<feColorMatrix in="SourceAlpha" type="matrix" values="0 0 0 0 0 0 0 0 0 0 0 0 0 0 0 0 0 0 127 0"/>
<feOffset/>
<feGaussianBlur stdDeviation="4"/>
<feColorMatrix type="matrix" values="0 0 0 0 0.429167 0 0 0 0 0.712971 0 0 0 0 1 0 0 0 0.64 0"/>
<feBlend mode="normal" in2="BackgroundImageFix" result="effect1_dropShadow"/>
<feBlend mode="normal" in="SourceGraphic" in2="effect1_dropShadow" result="shape"/>
</filter>
<linearGradient id="paint0_linear" x1="425" y1="176" x2="425" y2="348" gradientUnits="userSpaceOnUse">
<stop stop-color="#C1F2EA"/>
<stop offset="1" stop-color="#A9E5E6"/>
</linearGradient>
<radialGradient id="paint1_radial" cx="0" cy="0" r="1" gradientUnits="userSpaceOnUse" gradientTransform="translate(504.999 179.5) rotate(132.374) scale(192.889 176.01)">
<stop stop-color="#29E7E8"/>
<stop offset="1" stop-color="#651FFF"/>
</radialGradient>
</defs>
</svg>
