<?xml version="1.0" standalone="no"?>
<!DOCTYPE svg PUBLIC "-//W3C//DTD SVG 20010904//EN"
 "http://www.w3.org/TR/2001/REC-SVG-20010904/DTD/svg10.dtd">
<svg version="1.0" xmlns="http://www.w3.org/2000/svg"
 width="500.000000pt" height="492.000000pt" viewBox="0 0 500.000000 492.000000"
 preserveAspectRatio="xMidYMid meet">

<g transform="translate(0.000000,492.000000) scale(0.100000,-0.100000)"
fill="#000000" stroke="none">
<path d="M2335 4874 c-238 -24 -401 -55 -575 -110 -274 -87 -543 -230 -772
-410 -93 -73 -318 -298 -390 -389 -278 -353 -441 -742 -509 -1215 -19 -128
-16 -471 5 -615 110 -770 563 -1430 1231 -1797 390 -214 788 -309 1245 -295
367 11 658 82 985 242 690 337 1173 973 1319 1735 41 215 46 585 12 805 -98
622 -434 1185 -931 1560 -339 255 -700 406 -1130 470 -98 15 -411 27 -490 19z
m-1020 -1168 c51 -23 99 -66 316 -282 l255 -254 599 0 598 0 261 259 c305 302
310 305 476 306 88 0 101 -3 162 -33 142 -69 218 -185 228 -347 5 -74 14 -108
47 -190 84 -207 121 -385 130 -625 9 -264 -19 -456 -99 -689 -55 -160 -123
-298 -217 -437 -316 -472 -804 -768 -1375 -835 -126 -15 -399 -6 -526 16 -691
123 -1259 612 -1478 1270 -134 403 -131 829 8 1231 15 45 34 92 41 105 7 13
16 76 19 139 8 138 32 199 111 279 87 88 173 122 299 118 67 -2 97 -9 145 -31z"/>
<path d="M2352 2475 c4 -4 -13 -24 -38 -45 -25 -20 -52 -47 -60 -59 -9 -12
-19 -19 -23 -16 -5 2 -21 -13 -36 -35 -15 -22 -31 -37 -36 -34 -5 3 -9 -2 -9
-11 0 -22 49 17 149 118 54 55 69 77 60 82 -8 5 -11 5 -7 0z"/>
<path d="M2104 2248 c-4 -5 -3 -12 0 -15 3 -4 6 -1 6 6 0 7 4 10 9 6 5 -3 12
-2 15 3 3 5 -2 9 -10 9 -8 0 -17 -4 -20 -9z"/>
</g>
</svg>
